<svg xmlns="http://www.w3.org/2000/svg" viewBox="0 0 404.75 142.89"><defs><style>.cls-1{fill:#fff;}</style></defs><title>triangle-technight-scalable</title><g id="Layer_2" data-name="Layer 2"><g id="Layer_1-2" data-name="Layer 1"><path class="cls-1" d="M125,79.73h-1.13l3.09,3v-1A1.73,1.73,0,0,0,125,79.73Z"/><path class="cls-1" d="M135,125.42a1.73,1.73,0,0,0,2,2h1.29L135,124.24Z"/><path class="cls-1" d="M146.85,63.65a1.73,1.73,0,0,0-2-2h-1.66l3.62,3.49Z"/><path class="cls-1" d="M125,117.1h-.44l2.41,2.32v-.36A1.73,1.73,0,0,0,125,117.1Z"/><path class="cls-1" d="M403.81,81.69a2.24,2.24,0,0,0-.3-1.23L403,80a2.31,2.31,0,0,0-1.18-.27h-.61l2.57,2.48Z"/><polygon class="cls-1" points="393.44 70.75 390.44 67.86 388.93 67.86 393.44 72.21 393.44 70.75"/><path class="cls-1" d="M42.28,67.3h-2l4,3.84V69.26A1.73,1.73,0,0,0,42.28,67.3Z"/><path class="cls-1" d="M216.93,68.61a2.64,2.64,0,0,0-2.62-1.31h0l4,3.82Z"/><path class="cls-1" d="M342.51,63.65c0-.1,0-.19,0-.28l-1.73-1.67H339l3.49,3.36Z"/><path class="cls-1" d="M82.68,89.47a22.9,22.9,0,0,0-.17-2.4l5,4.8a16.43,16.43,0,0,0-1-4l-4.88-4.7a12.32,12.32,0,0,0-2.91-4.55q-4-3.92-11.4-3.92H59.9q-7.38,0-11.4,3.92T44.48,90v17.19q0,7.38,4,11.31a12.58,12.58,0,0,0,4,2.59l5.32,5.13a17.43,17.43,0,0,0,4.5,1.05l-5.21-5q1.05.12,2.19.15l5.19,5h3.39l-5.18-5h2.06l5.18,5h3.35l-5.18-5h2.09l5.18,5h3.33l-5.18-5h2.11l5.18,5h3.3l-5.18-5h1.63l.49,0,5.16,5a1.59,1.59,0,0,0,.9-.37,2,2,0,0,0,.42-1.45v-.07l-5-4.83s0-.07,0-.1v-2l5,4.82v-3.13l-3-2.94h-2v-2.94q0-2.05-2-2.06H61.67c-.18,0-.32,0-.49,0,0-.13,0-.25,0-.39v-1.4l-5-4.82v-.84a.93.93,0,0,1,.39-.83l5.12,4.94a1.39,1.39,0,0,1,.62-.13h2.54l-5.18-5h2.14l5.18,5h3.27l-5.18-5h2.17l5.18,5h3.25l-5.18-5h2.19l5.18,5h3.22l-5.18-5H78.1l5.18,5h2.45a2.87,2.87,0,0,0,.66-.08l-5.15-5a1.54,1.54,0,0,0,1.27-.94l5.06,4.88a2.72,2.72,0,0,0,.12-.86v-2.08l-5-4.82V97.73l5,4.82v-3l-5-4.82V92.49l5,4.82V95c0-.23,0-.45,0-.67Zm-26.23,6a1.09,1.09,0,0,1-.2-.68v-1.6L59,95.84h-1.7a1.1,1.1,0,0,1-.66-.19Zm4.8.35v-.51c0-.15,0-.27,0-.41l-5-4.83a9.54,9.54,0,0,1,.21-1.91l5,4.85a4,4,0,0,1,1-1.91s.11-.08.16-.12l-5.1-4.92a3.71,3.71,0,0,1,1.4-.79l5.13,4.95a9,9,0,0,1,2.62-.33h.23l-5.18-5H64l5.18,5H70.6l.4,0c0,.14,0,.26,0,.4v4.49a.91.91,0,0,1-1,1Zm6-10.8a4.49,4.49,0,0,1,2.54,1.08,4.38,4.38,0,0,1,1.05,2.38Zm-9.85,26a4.11,4.11,0,0,1-1-1.92l3,2.93A4.2,4.2,0,0,1,57.42,111Z"/><path class="cls-1" d="M330.65,125.42a1.73,1.73,0,0,0,2,2h.48L330.65,125Z"/><path class="cls-1" d="M270.62,61.92a2.33,2.33,0,0,0-1.08-.23h-1.22l3.08,3v-1.2a2,2,0,0,0-.23-1Z"/><path class="cls-1" d="M259.57,72.14A1.51,1.51,0,0,0,261,73.53Z"/><polygon class="cls-1" points="285.05 140.77 287.25 142.9 289.63 142.9 285.05 138.47 285.05 140.77"/><path class="cls-1" d="M162.17,125.42a1.73,1.73,0,0,0,2,2h1.16l-3.12-3Z"/><path class="cls-1" d="M315.37,79.73v-3q0-2-2.06-2H291.73q-7.38,0-11.4,3.92t-4,11.31v15q0,7.38,3.69,11.31a11.48,11.48,0,0,0,4.44,2.89l5.29,5.1a16.14,16.14,0,0,0,3,.71l-5.21-5a22.05,22.05,0,0,0,3.35.24h.07l5.18,5h2.25l-5.18-5H294a12.27,12.27,0,0,0,2.2-.22l5.16,5a12.09,12.09,0,0,0,1.74-.46l-5.14-5a12.56,12.56,0,0,0,1.56-.64c.22-.11.41-.24.61-.37l3.41,3.29v.35a5.73,5.73,0,0,1-1.26,4.16q-1.26,1.26-4.25,1.26H282a1.73,1.73,0,0,0-2,2V136a2,2,0,0,0,.42,1.45,2.18,2.18,0,0,0,1.54.42h5.5l5.18,5H295l-5.18-5h3.08l5.18,5h2.33l-5.18-5h3.11l5.18,5h1.38c.31,0,.59,0,.89,0l-5.18-5a22.3,22.3,0,0,0,2.88-.25l5.15,5a17.52,17.52,0,0,0,1.84-.42l-5.14-5a15.06,15.06,0,0,0,2.32-.82l5.13,4.94a13.19,13.19,0,0,0,1.43-.79l-5.11-4.93a12.55,12.55,0,0,0,1.79-1.35l5.1,4.92.26-.22a12,12,0,0,0,.82-.89L312,133.18a12.07,12.07,0,0,0,1.31-1.84l5.06,4.88a13,13,0,0,0,.7-1.44l-5.05-4.87a14.8,14.8,0,0,0,.79-2.37l5,4.85c.13-.57.23-1.17.31-1.79l-5-4.84a22.32,22.32,0,0,0,.2-3l5,4.82v-2.07l-5-4.82v-3.18l5,4.82v-2l-5-4.82v-3.2l5,4.82v-2l-5-4.82v-3.23l5,4.82v-2l-5-4.82v-3.25l5,4.82v-2l-5-4.82V96.57l5,4.82V99.46l-5-4.82v-3.3l5,4.82V94.24l-5-4.82V86.08l5,4.82V89l-5-4.82V80.84l5,4.82V83.8l-4.22-4.07Zm-18.31,30.13h-3.46l-.4,0v-.05l-5-4.81c0-.18,0-.34,0-.54v-2.62l5,4.82v-2.09l-5-4.82V96.58l5,4.82V99.33l-5-4.82V91.33l5,4.82v-.63a11.79,11.79,0,0,1,.07-1.34l-5-4.83a5.89,5.89,0,0,1,.73-2.5L294,91.75a3.31,3.31,0,0,1,.35-.48,3.16,3.16,0,0,1,.69-.53L290,85.81a5.75,5.75,0,0,1,2.57-.75l5.17,5c.28,0,.55,0,.87,0h1.15l-5.18-5h3.37l5.18,5h.38v12.85Q303.5,109.86,297.05,109.86Zm-6.5-.5a3.51,3.51,0,0,1-1.16-.71,3.43,3.43,0,0,1-.67-1Zm13-20.95L300,85h2.41q1.12,0,1.12,1Zm-2.17,29.23a7,7,0,0,0,1.4-1.78l.77.74v3.13Z"/><path class="cls-1" d="M357.84,125.42a1.73,1.73,0,0,0,2,2h.35l-2.31-2.23Z"/><path class="cls-1" d="M364.71,90V90a25.82,25.82,0,0,0-.26-3.75l5,4.78a18.45,18.45,0,0,0-.46-2.1L364,84.13q-2.48-9.39-14-9.4h-3a13.6,13.6,0,0,0-4.53.69V73.83l-5-4.82V65.48l5,4.82V68.61l-5-4.82V58.65a1.73,1.73,0,0,0-2-2h-7.94a1.73,1.73,0,0,0-2,2v61.77a1.73,1.73,0,0,0,2,2h3.64l5.19,5h2.06l-5.18-5h2.24a2.54,2.54,0,0,0,1-.17l5.13,4.94a1.54,1.54,0,0,0,.82-1.18l-5-4.85a2.83,2.83,0,0,0,.09-.71v-2.49l5,4.82v-1.94l-5-4.82v-3.3l5,4.82v-1.92l-5-4.82v-3.33l5,4.82v-1.89l-5-4.82V102.2l5,4.82v-1.87l-5-4.82V97l5,4.82V99.93l-5-4.82v-3c0-.14,0-.25,0-.38l5,4.83a11.35,11.35,0,0,1,.18-1.64l-5-4.85a7,7,0,0,1,.91-2.55l5.07,4.89a4.88,4.88,0,0,1,.85-1l-5.1-4.92a5.3,5.3,0,0,1,2.31-1.22l5.15,5a8.49,8.49,0,0,1,1.6-.22l-5.17-5c.22,0,.41,0,.64,0h2.92l5.18,5h.26l.48,0c0,.17,0,.32,0,.49v29.9a1.73,1.73,0,0,0,2,2h3.64l5.18,5h1.93l-5.18-5h2.27a2.72,2.72,0,0,0,1-.19l5.13,4.94a1.52,1.52,0,0,0,.8-1.06l-5-4.86a2.64,2.64,0,0,0,.12-.8v-2.49l5,4.82v-1.81l-5-4.82v-3.43l5,4.82v-1.79l-5-4.82v-3.46l5,4.82V110.5l-5-4.82v-3.48l5,4.82v-1.74l-5-4.82V96.95l5,4.82v-1.71l-5-4.82V91.7l5,4.82V95s0-.08,0-.13ZM337.51,79.45V76l1.69,1.63a7.75,7.75,0,0,0-1.32,2.17h0Zm4.89-4a8,8,0,0,0-2.3,1.28l-2.59-2.5V70.73Zm6.37,9.65a4.72,4.72,0,0,1,2.79,1.17,4.61,4.61,0,0,1,1.13,2.62Z"/><path class="cls-1" d="M266.4,79.73v-3a1.73,1.73,0,0,0-2-2h-8q-1.87,0-1.87,2v43.73a1.73,1.73,0,0,0,2,2h4l5.18,5h2.41l-5.18-5h1.58a2.72,2.72,0,0,0,1.22-.22l5.11,4.93L271,127a2.15,2.15,0,0,0,.42-1.59v-.11l-5-4.82s0,0,0-.07v-2.88l5,4.82v-2.27l-5-4.82v-3l5,4.82v-2.25l-5-4.82v-3l5,4.82v-2.22l-5-4.82v-3l5,4.82v-2.19l-5-4.82V96.56l5,4.82V99.21l-5-4.82V91.32l5,4.82V94l-5-4.82v-3.1l5,4.82V88.77l-5-4.82V80.83l5,4.82V83.55l-4-3.83Z"/><path class="cls-1" d="M205.34,125.42a1.73,1.73,0,0,0,2,2h1.29l-3.26-3.14Z"/><path class="cls-1" d="M169,89.21a25.53,25.53,0,0,0-.21-2.85l5,4.79a17.35,17.35,0,0,0-.85-3.39L168,83q-2.84-8.3-13.65-8.31h-3a13.6,13.6,0,0,0-4.53.69V73.05l-5-4.82V65.61l5,4.82v-2.6l-5-4.82V58.65a1.73,1.73,0,0,0-2-2h-7.94a1.73,1.73,0,0,0-2,2v61.77a1.73,1.73,0,0,0,2,2h3.51l5.19,5h3l-5.18-5h1.42a2.69,2.69,0,0,0,.87-.13l5.13,4.94a1.73,1.73,0,0,0,1-1.78v-.17l-5-4.82h0v-2.36l5,4.82V120l-5-4.82v-2.39l5,4.82v-2.83l-5-4.82v-2.42l5,4.82v-2.8l-5-4.82v-2.44l5,4.82v-2.78l-5-4.82V97.08l5,4.82V99.15l-5-4.82V92.11c0-.09,0-.17,0-.26l5,4.83a10.66,10.66,0,0,1,.32-2.42l-5-4.85a6.59,6.59,0,0,1,.72-1.82L148,92.49a4.85,4.85,0,0,1,1.33-1.42l-5.1-4.92a5.49,5.49,0,0,1,1.78-.83l5.15,5a8.64,8.64,0,0,1,2.18-.28h.31l-5.18-5h2.66l5.18,5h.39l.48,0c0,.17,0,.32,0,.5v29.9a1.73,1.73,0,0,0,2,2h3.51l5.18,5h2.88l-5.18-5H167a2.86,2.86,0,0,0,1-.15l5.13,4.95a1.72,1.72,0,0,0,1-1.76v0l-5-4.83s0-.08,0-.12v-2.36l5,4.82v-2.73l-5-4.82v-2.52l5,4.82v-2.7l-5-4.82v-2.54l5,4.82v-2.68l-5-4.82v-2.57l5,4.82v-2.65l-5-4.82v-2.6l5,4.82V99.27l-5-4.82V91.83l5,4.82V95c0-.32,0-.62,0-.93ZM141.85,78.67V76.1l1.64,1.58a7.63,7.63,0,0,0-1,1.6Zm4.8-3.18a8.12,8.12,0,0,0-1.74.92l-3.07-3v-2.6Zm7.49,9.82a4,4,0,0,1,1.77,1,3.89,3.89,0,0,1,.92,1.63Z"/><path class="cls-1" d="M404.51,118l-.67-.65a2.42,2.42,0,0,0-1.06-.21h-.86l2.82,2.72v-.76A2.38,2.38,0,0,0,404.51,118Z"/><path class="cls-1" d="M242.86,67.3v-3a1.73,1.73,0,0,0-2-2h-7.76a1.73,1.73,0,0,0-2,2V97l-3-2.92-3.18-6,4.8,4.63-2.55-4.78-4.81-4.63-3.21-6L224,81.91l-2.52-4.72-4.81-4.64-4.77-8.95a2.64,2.64,0,0,0-2.62-1.31h-7a1.73,1.73,0,0,0-2,2v56.16a1.73,1.73,0,0,0,2,2h3.85l5.18,5H214l-5.18-5h1.23a2.25,2.25,0,0,0,1.23-.3l5.1,4.92a1.87,1.87,0,0,0,.63-1.58v-.35l-5-4.82v-2.7l5,4.82v-2.52L212,115V112.3l5,4.82v-2.5l-5-4.82v-2.75l5,4.82v-2.47l-5-4.82v-2.77l5,4.82v-2.45l-5-4.82v-2.8l5,4.82V99l-5-4.82V91.32l5,4.82V94.36l14.06,26.16a3.12,3.12,0,0,0,3,1.87h.33l1.13,2.1,3,2.85a4,4,0,0,0,.59,0h2l-5.18-5h2.9l5.18,5h1.92a3.07,3.07,0,0,0,.54,0l-5.16-5A1.58,1.58,0,0,0,242.8,121l5,4.85a3.28,3.28,0,0,0,0-.43v-1.94l-5-4.82v-2.85l5,4.82v-2.37l-5-4.82v-2.87l5,4.82V113l-5-4.82v-2.9l5,4.82v-2.32l-5-4.82v-2.92l5,4.82v-2.3l-5-4.82V94.83l5,4.82V97.39l-5-4.82v-3l5,4.82V92.17l-5-4.82v-3l5,4.82V86.95l-5-4.82v-3l5,4.82V81.73l-5-4.82V73.85l5,4.82V76.51l-5-4.82V68.61l5,4.82V71.29l-4.13-4ZM230.88,99h-.08l-.09-.16ZM212,88.92V86.08l1.14,1.1,3.18,5.92Z"/><path class="cls-1" d="M259.54,125.42a1.73,1.73,0,0,0,2,2h1.23l-3.19-3.07Z"/><path class="cls-1" d="M399.75,114.07a1.73,1.73,0,0,0-2-2H394c-.39,0-.74,0-1.09-.06l-4.46-4.3a10.37,10.37,0,0,1-.06-1.06V104.1l5,4.82v-1.64l-5-4.82V98.86l5,4.82v-1.61l-5-4.82V93.61l5,4.82V96.85l-5-4.82V88.37l5,4.82V91.63l-5-4.82V86q0-1,1.12-1h.83l5.18,5h1.59L392,85h3.85L401,90h.83a4.11,4.11,0,0,0,.68-.06l-5.15-5a1.68,1.68,0,0,0,1-.39,2,2,0,0,0,.42-1.45v-.5l5,4.82V86l-5-4.82V76.69a1.73,1.73,0,0,0-2-2h-4.7l-3.71-3.58V64.82a1.73,1.73,0,0,0-2-2h-7.85q-2.06,0-2.06,2V73.7a.91.91,0,0,1-1,1h-3.74a1.73,1.73,0,0,0-2,2v6.45a2,2,0,0,0,.42,1.5,2.36,2.36,0,0,0,1.54.37h3v.74l1.73,1.67v19.83q0,7.29,4.06,11.21a12.63,12.63,0,0,0,3.29,2.27l5.37,5.18a15.39,15.39,0,0,0,2.77.93l-5.26-5.07a20.62,20.62,0,0,0,4.23.58l5.19,5,.85,0h1l-5.18-5h3.66l5.18,5h1.08a4.28,4.28,0,0,0,.62,0l-5.16-5a1.74,1.74,0,0,0,1.08-.4,2,2,0,0,0,.42-1.45v-.26l5,4.82v-1.66l-5-4.82Zm-9.14-2.63a3.61,3.61,0,0,1-.86-.59,3.47,3.47,0,0,1-.61-.83Zm0-36.71h-1.05q-1.12,0-1.12-1V72.63Zm-14.08,11-.75-.72A.82.82,0,0,1,376.53,85.76Z"/><path class="cls-1" d="M266.4,58.47q0-1.77-1.87-1.78H256.4a1.65,1.65,0,0,0-1.87,1.87v8.13a1.65,1.65,0,0,0,1.87,1.87h3.13V69l4.77,4.6h2.15l-5.18-5h3.29l5.17,5a1.63,1.63,0,0,0,1.39-.7L266,67.95a2,2,0,0,0,.36-1.26v-1.6l5,4.82v-2l-5-4.82Z"/><path class="cls-1" d="M39.25,64.26a1.73,1.73,0,0,0-2-2H2a1.73,1.73,0,0,0-2,2v6.35a1.73,1.73,0,0,0,2,2H5v2.68l2.41,2.32h3.4l-5.18-5h2l5.18,5h.8v42.84q0,2,2.06,2h2.94v2.75L21,127.38h3.59l-5.18-5h1.85l5.19,5h2.13a2.33,2.33,0,0,0,1.16-.26l-5.13-4.94a1.48,1.48,0,0,0,.83-1l5,4.85a3,3,0,0,0,.06-.6v-2.74l-5-4.82V116l5,4.82v-3.38l-5-4.82v-1.86l5,4.82v-3.36l-5-4.82v-1.89l5,4.82V107l-5-4.82v-1.91l5,4.82V101.8l-5-4.82V95l5,4.82V96.58l-5-4.82v-2l5,4.82V91.36l-5-4.82v-2l5,4.82V86.14l-5-4.82v-2l5,4.82V80.92l-5-4.82v-2l5,4.82v-.27q0-1,1.12-1h.83l-5.18-5h2.14l5.18,5h3.27l-5.18-5h2.17l5.18,5h2.24a2.7,2.7,0,0,0,.87-.13l-5.15-5a1.5,1.5,0,0,0,1.12-1l5,4.85a2.84,2.84,0,0,0,.08-.69V73.28l-5-4.82Zm-25.6,9.34v1.48L11,72.58h1.58a1.07,1.07,0,0,1,.72.23l.08.07A1.06,1.06,0,0,1,13.64,73.61Z"/><path class="cls-1" d="M121.94,76.69a1.73,1.73,0,0,0-2-2H106.06q-7.38,0-11.4,3.92T90.64,90v17.19q0,7.38,4,11.31a12.33,12.33,0,0,0,2.81,2,11.93,11.93,0,0,0,2.19,3,12.92,12.92,0,0,0,5.18,3l-5.26-5.08a17.26,17.26,0,0,0,3,.72l5.21,5a23.6,23.6,0,0,0,3.29.22h.11l-5.19-5h2.27l5.18,5h3.14l-5.18-5h2.3l5.18,5H122l-5.18-5h2.32l5.18,5H125a2.17,2.17,0,0,0,1.54-.42,1.1,1.1,0,0,0,.19-.25l-5.08-4.89a2.26,2.26,0,0,0,.31-1.3v-.67l5,4.82v-3l-4.78-4.61h-.22v-3a1.73,1.73,0,0,0-2-2H107.93a9.16,9.16,0,0,1-2-.21l-3.17-3.06a9.41,9.41,0,0,1-.25-2.24v-.24l5,4.82v-3l-5-4.82V101.1l5,4.82v-3l-5-4.82V95.86l5,4.82V97.75l-5-4.82V90.61l5,4.83a8.73,8.73,0,0,1,.35-2.57l-5-4.87a4,4,0,0,1,.82-1.55l5.08,4.9.06-.08a4,4,0,0,1,1.83-1l-5.15-5a8.37,8.37,0,0,1,2.15-.29l5.17,5h2.95l-5.18-5H113l5.18,5h2.93l-5.18-5h2.51l5.18,5H125a2.76,2.76,0,0,0,1.3-.25l-5.13-4.95a1.17,1.17,0,0,0,.37-.23,2,2,0,0,0,.42-1.45h0l5,4.82V85.18l-5-4.82Z"/><path class="cls-1" d="M122.79,40.38h-1.67q-.63,0-.63-.69V6.55q0-.52-.57-.52h-8.33q-.69,0-.69-.63V4.08q0-.63.69-.63h20.68q.69,0,.69.63V5.4q0,.63-.69.63h-8.33q-.57,0-.57.52V39.69Q123.36,40.38,122.79,40.38Z"/><path class="cls-1" d="M140.54,40.38h-1.67q-.57,0-.57-.69V11.78q0-.69.57-.69h1.67q.63,0,.63.69v2.41h.23A5.67,5.67,0,0,1,143.64,12a7.69,7.69,0,0,1,4-.95h2.24a.56.56,0,0,1,.63.63V13.1q0,.63-.63.57h-2.7a5.66,5.66,0,0,0-4.39,1.72A6.61,6.61,0,0,0,141.17,20V39.69Q141.17,40.38,140.54,40.38Z"/><path class="cls-1" d="M156.56,6.26V.75q0-.63.57-.63h1.72c.38,0,.57.21.57.63V6.26c0,.46-.19.69-.57.69h-1.72Q156.56,7,156.56,6.26Zm0,33.43V11.78q0-.69.57-.69h1.67q.63,0,.63.69V39.69c0,.46-.19.69-.57.69h-1.72Q156.56,40.38,156.56,39.69Z"/><path class="cls-1" d="M179.48,40.38H175.8a7.9,7.9,0,0,1-5.89-2.18,8.13,8.13,0,0,1-2.15-6v-13a8.13,8.13,0,0,1,2.15-6,7.9,7.9,0,0,1,5.89-2.18H188q.57,0,.57.69V39.69q0,.69-.57.69h-1.67q-.63,0-.63-.69V37.4h-.23Q184,40.38,179.48,40.38Zm6.2-8.21v-18q0-.52-.57-.52H176a5.2,5.2,0,0,0-4,1.49,6,6,0,0,0-1.38,4.19V32.11A6,6,0,0,0,172,36.3a5.2,5.2,0,0,0,4,1.49h3.73a6.13,6.13,0,0,0,4.34-1.46A5.4,5.4,0,0,0,185.69,32.17Z"/><path class="cls-1" d="M199.41,40.38h-1.67q-.57,0-.57-.69V11.78q0-.69.57-.69h1.67q.63,0,.63.69v2.3h.23q1.61-3,6-3H210a7.73,7.73,0,0,1,5.8,2.18,8.2,8.2,0,0,1,2.13,6V39.69c0,.46-.19.69-.57.69h-1.67q-.63,0-.63-.69V19.36a6,6,0,0,0-1.38-4.19,5.21,5.21,0,0,0-4-1.49H206a6.13,6.13,0,0,0-4.34,1.46A5.4,5.4,0,0,0,200,19.3V39.69Q200,40.38,199.41,40.38Z"/><path class="cls-1" d="M237.67,38.72h-3.73a7.82,7.82,0,0,1-5.83-2.18A8.05,8.05,0,0,1,226,30.62V19.24a8.14,8.14,0,0,1,2.15-6A7.9,7.9,0,0,1,234,11.09h12.18q.63,0,.63.69V40.27a7.54,7.54,0,0,1-8.1,8.16H228.25a.56.56,0,0,1-.63-.63V46.42q0-.58.63-.58h10.23a5.26,5.26,0,0,0,4-1.46,5.93,5.93,0,0,0,1.38-4.22V35.73h-.23Q242.21,38.72,237.67,38.72Zm6.2-8.21V14.19a.46.46,0,0,0-.52-.52h-9.08a5.35,5.35,0,0,0-4,1.46,5.86,5.86,0,0,0-1.41,4.22V30.5a5.76,5.76,0,0,0,1.41,4.16,5.35,5.35,0,0,0,4,1.46H238a6.13,6.13,0,0,0,4.34-1.46A5.4,5.4,0,0,0,243.88,30.5Z"/><path class="cls-1" d="M257.89,40.38h-1.67q-.57,0-.57-.69V.69q0-.69.57-.69h1.67q.63,0,.63.69v39Q258.52,40.38,257.89,40.38Z"/><path class="cls-1" d="M286.9,40.38h-12A7.9,7.9,0,0,1,269,38.2a8.13,8.13,0,0,1-2.15-6v-13a8.13,8.13,0,0,1,2.15-6,7.9,7.9,0,0,1,5.89-2.18h4.94a8,8,0,0,1,5.92,2.18,8.07,8.07,0,0,1,2.18,6v7.3a.61.61,0,0,1-.69.69h-17a.46.46,0,0,0-.52.52v4.42a5.84,5.84,0,0,0,1.38,4.16,5.26,5.26,0,0,0,4,1.46H286.9a.56.56,0,0,1,.63.63v1.32A.56.56,0,0,1,286.9,40.38ZM270.24,24.93h14.3a.46.46,0,0,0,.52-.52V19.3a5.85,5.85,0,0,0-1.38-4.17,5.26,5.26,0,0,0-4-1.46h-4.54a5.26,5.26,0,0,0-4,1.46,5.85,5.85,0,0,0-1.38,4.17v5.11A.46.46,0,0,0,270.24,24.93Z"/></g></g></svg>